<?xml version="1.0" encoding="UTF-8"?>
<!DOCTYPE svg PUBLIC "-//W3C//DTD SVG 1.1//EN" "http://www.w3.org/Graphics/SVG/1.1/DTD/svg11.dtd">
<svg preserveAspectRatio="xMidYMid meet" width="1024" height="768" viewBox="0 0 1024 768" xmlns="http://www.w3.org/2000/svg" xmlns:xlink="http://www.w3.org/1999/xlink" xmlns:rdf="http://www.w3.org/1999/02/22-rdf-syntax-ns#" xmlns:dc="http://purl.org/dc/elements/1.1/" xmlns:cc="http://web.resource.org/cc/">
 <defs>
  <marker id="arrow" markerWidth="10" markerHeight="10" refx="0" refy="3" orient="auto" markerUnits="strokeWidth" viewBox="0 0 20 20">
    <path d="M0,0 L0,6 L9,3 z" fill="#f00" />
  </marker>
</defs>
   <line x1="438.243896" y1="696.921387" x2="438.072418" y2="697.022766" stroke-width="1" stroke="rgb(0,0,0)"/>
   <line x1="438.072418" y1="697.022766" x2="436.733002" y2="697.063782" stroke-width="1" stroke="rgb(0,0,0)"/>
   <line x1="436.733002" y1="697.063782" x2="438.063995" y2="696.777344" stroke-width="1" stroke="rgb(0,0,0)"/>
   <line x1="438.063995" y1="696.777344" x2="438.202942" y2="696.761841" stroke-width="1" stroke="rgb(0,0,0)"/>
   <line x1="438.202942" y1="696.761841" x2="444.260529" y2="696.098633" stroke-width="1" stroke="rgb(0,0,0)"/>
   <line x1="444.260529" y1="696.098633" x2="444.659729" y2="695.732910" stroke-width="1" stroke="rgb(0,0,0)"/>
   <line x1="444.659729" y1="695.732910" x2="444.751282" y2="696.165039" stroke-width="1" stroke="rgb(0,0,0)"/>
   <line x1="444.751282" y1="696.165039" x2="444.378082" y2="696.217773" stroke-width="1" stroke="rgb(0,0,0)"/>
   <line x1="444.378082" y1="696.217773" x2="444.281616" y2="696.260376" stroke-width="1" stroke="rgb(0,0,0)"/>
   <line x1="444.281616" y1="696.260376" x2="438.243896" y2="696.921387" stroke-width="1" stroke="rgb(0,0,0)"/>
   <line x1="408.832336" y1="538.339905" x2="408.833893" y2="538.347778" stroke-width="1" stroke="rgb(0,0,0)"/>
   <line x1="408.833893" y1="538.347778" x2="408.691925" y2="541.311279" stroke-width="1" stroke="rgb(0,0,0)"/>
   <line x1="408.691925" y1="541.311279" x2="407.900909" y2="542.098572" stroke-width="1" stroke="rgb(0,0,0)"/>
   <line x1="407.900909" y1="542.098572" x2="406.309875" y2="543.368896" stroke-width="1" stroke="rgb(0,0,0)"/>
   <line x1="406.309875" y1="543.368896" x2="404.123932" y2="543.739929" stroke-width="1" stroke="rgb(0,0,0)"/>
   <line x1="404.123932" y1="543.739929" x2="402.763458" y2="543.757141" stroke-width="1" stroke="rgb(0,0,0)"/>
   <line x1="402.763458" y1="543.757141" x2="400.262054" y2="542.163574" stroke-width="1" stroke="rgb(0,0,0)"/>
   <line x1="400.262054" y1="542.163574" x2="399.558105" y2="540.398071" stroke-width="1" stroke="rgb(0,0,0)"/>
   <line x1="399.558105" y1="540.398071" x2="401.623016" y2="536.907166" stroke-width="1" stroke="rgb(0,0,0)"/>
   <line x1="401.623016" y1="536.907166" x2="403.194519" y2="536.583252" stroke-width="1" stroke="rgb(0,0,0)"/>
   <line x1="403.194519" y1="536.583252" x2="406.181641" y2="536.599304" stroke-width="1" stroke="rgb(0,0,0)"/>
   <line x1="406.181641" y1="536.599304" x2="408.819061" y2="538.330933" stroke-width="1" stroke="rgb(0,0,0)"/>
   <line x1="408.819061" y1="538.330933" x2="408.832336" y2="538.339905" stroke-width="1" stroke="rgb(0,0,0)"/>
   <line x1="408.795227" y1="536.759338" x2="408.986023" y2="537.744202" stroke-width="1" stroke="rgb(0,0,0)"/>
   <line x1="408.986023" y1="537.744202" x2="408.884521" y2="539.862976" stroke-width="1" stroke="rgb(0,0,0)"/>
   <line x1="408.884521" y1="539.862976" x2="407.387878" y2="541.352539" stroke-width="1" stroke="rgb(0,0,0)"/>
   <line x1="407.387878" y1="541.352539" x2="406.697693" y2="541.903625" stroke-width="1" stroke="rgb(0,0,0)"/>
   <line x1="406.697693" y1="541.903625" x2="403.465210" y2="542.452271" stroke-width="1" stroke="rgb(0,0,0)"/>
   <line x1="403.465210" y1="542.452271" x2="403.114929" y2="542.456665" stroke-width="1" stroke="rgb(0,0,0)"/>
   <line x1="403.114929" y1="542.456665" x2="399.517548" y2="540.164856" stroke-width="1" stroke="rgb(0,0,0)"/>
   <line x1="399.517548" y1="540.164856" x2="399.336304" y2="539.710266" stroke-width="1" stroke="rgb(0,0,0)"/>
   <line x1="399.336304" y1="539.710266" x2="402.066254" y2="535.095032" stroke-width="1" stroke="rgb(0,0,0)"/>
   <line x1="402.066254" y1="535.095032" x2="402.172607" y2="535.073120" stroke-width="1" stroke="rgb(0,0,0)"/>
   <line x1="402.172607" y1="535.073120" x2="406.306488" y2="535.095276" stroke-width="1" stroke="rgb(0,0,0)"/>
   <line x1="406.306488" y1="535.095276" x2="407.137054" y2="535.640564" stroke-width="1" stroke="rgb(0,0,0)"/>
   <line x1="407.137054" y1="535.640564" x2="408.795227" y2="536.759338" stroke-width="1" stroke="rgb(0,0,0)"/>
   <line x1="406.783417" y1="533.846436" x2="408.758148" y2="535.178772" stroke-width="1" stroke="rgb(0,0,0)"/>
   <line x1="408.758148" y1="535.178772" x2="409.138123" y2="537.140625" stroke-width="1" stroke="rgb(0,0,0)"/>
   <line x1="409.138123" y1="537.140625" x2="409.077118" y2="538.414673" stroke-width="1" stroke="rgb(0,0,0)"/>
   <line x1="409.077118" y1="538.414673" x2="407.313385" y2="540.169983" stroke-width="1" stroke="rgb(0,0,0)"/>
   <line x1="407.313385" y1="540.169983" x2="407.058746" y2="540.454773" stroke-width="1" stroke="rgb(0,0,0)"/>
   <line x1="407.058746" y1="540.454773" x2="406.835022" y2="540.520813" stroke-width="1" stroke="rgb(0,0,0)"/>
   <line x1="406.835022" y1="540.520813" x2="403.574341" y2="541.132080" stroke-width="1" stroke="rgb(0,0,0)"/>
   <line x1="403.574341" y1="541.132080" x2="402.813293" y2="540.900085" stroke-width="1" stroke="rgb(0,0,0)"/>
   <line x1="402.813293" y1="540.900085" x2="399.725861" y2="538.933105" stroke-width="1" stroke="rgb(0,0,0)"/>
   <line x1="399.725861" y1="538.933105" x2="399.341583" y2="538.320679" stroke-width="1" stroke="rgb(0,0,0)"/>
   <line x1="399.341583" y1="538.320679" x2="401.596313" y2="534.404175" stroke-width="1" stroke="rgb(0,0,0)"/>
   <line x1="401.596313" y1="534.404175" x2="402.609467" y2="533.623047" stroke-width="1" stroke="rgb(0,0,0)"/>
   <line x1="402.609467" y1="533.623047" x2="406.060974" y2="533.622986" stroke-width="1" stroke="rgb(0,0,0)"/>
   <line x1="406.060974" y1="533.622986" x2="406.783417" y2="533.846436" stroke-width="1" stroke="rgb(0,0,0)"/>
   <line x1="407.559814" y1="532.814758" x2="408.721008" y2="533.598206" stroke-width="1" stroke="rgb(0,0,0)"/>
   <line x1="408.721008" y1="533.598206" x2="409.290253" y2="536.537109" stroke-width="1" stroke="rgb(0,0,0)"/>
   <line x1="409.290253" y1="536.537109" x2="409.269714" y2="536.966309" stroke-width="1" stroke="rgb(0,0,0)"/>
   <line x1="409.269714" y1="536.966309" x2="408.675507" y2="537.557678" stroke-width="1" stroke="rgb(0,0,0)"/>
   <line x1="408.675507" y1="537.557678" x2="407.332245" y2="539.060059" stroke-width="1" stroke="rgb(0,0,0)"/>
   <line x1="407.332245" y1="539.060059" x2="406.151978" y2="539.408325" stroke-width="1" stroke="rgb(0,0,0)"/>
   <line x1="406.151978" y1="539.408325" x2="404.091064" y2="539.794678" stroke-width="1" stroke="rgb(0,0,0)"/>
   <line x1="404.091064" y1="539.794678" x2="402.164948" y2="539.207520" stroke-width="1" stroke="rgb(0,0,0)"/>
   <line x1="402.164948" y1="539.207520" x2="400.439941" y2="538.108521" stroke-width="1" stroke="rgb(0,0,0)"/>
   <line x1="400.439941" y1="538.108521" x2="399.467438" y2="536.558472" stroke-width="1" stroke="rgb(0,0,0)"/>
   <line x1="399.467438" y1="536.558472" x2="401.054901" y2="533.801025" stroke-width="1" stroke="rgb(0,0,0)"/>
   <line x1="401.054901" y1="533.801025" x2="403.160492" y2="532.177673" stroke-width="1" stroke="rgb(0,0,0)"/>
   <line x1="403.160492" y1="532.177673" x2="405.500336" y2="532.177612" stroke-width="1" stroke="rgb(0,0,0)"/>
   <line x1="405.500336" y1="532.177612" x2="407.559814" y2="532.814758" stroke-width="1" stroke="rgb(0,0,0)"/>
   <line x1="353.230988" y1="578.685852" x2="352.793976" y2="578.628296" stroke-width="1" stroke="rgb(0,0,0)"/>
   <line x1="352.793976" y1="578.628296" x2="351.771851" y2="578.572327" stroke-width="1" stroke="rgb(0,0,0)"/>
   <line x1="351.771851" y1="578.572327" x2="348.102539" y2="578.317139" stroke-width="1" stroke="rgb(0,0,0)"/>
   <line x1="348.102539" y1="578.317139" x2="346.107880" y2="578.269409" stroke-width="1" stroke="rgb(0,0,0)"/>
   <line x1="346.107880" y1="578.269409" x2="343.727997" y2="578.165222" stroke-width="1" stroke="rgb(0,0,0)"/>
   <line x1="343.727997" y1="578.165222" x2="341.784088" y2="578.111877" stroke-width="1" stroke="rgb(0,0,0)"/>
   <line x1="341.784088" y1="578.111877" x2="338.519653" y2="577.912598" stroke-width="1" stroke="rgb(0,0,0)"/>
   <line x1="338.519653" y1="577.912598" x2="333.770905" y2="577.182678" stroke-width="1" stroke="rgb(0,0,0)"/>
   <line x1="333.770905" y1="577.182678" x2="333.123932" y2="577.036865" stroke-width="1" stroke="rgb(0,0,0)"/>
   <line x1="333.123932" y1="577.036865" x2="332.624817" y2="576.811218" stroke-width="1" stroke="rgb(0,0,0)"/>
   <line x1="332.624817" y1="576.811218" x2="328.935730" y2="574.746216" stroke-width="1" stroke="rgb(0,0,0)"/>
   <line x1="328.935730" y1="574.746216" x2="325.848816" y2="573.233093" stroke-width="1" stroke="rgb(0,0,0)"/>
   <line x1="325.848816" y1="573.233093" x2="324.583893" y2="572.509094" stroke-width="1" stroke="rgb(0,0,0)"/>
   <line x1="324.583893" y1="572.509094" x2="321.228394" y2="571.334473" stroke-width="1" stroke="rgb(0,0,0)"/>
   <line x1="321.228394" y1="571.334473" x2="319.504852" y2="570.739563" stroke-width="1" stroke="rgb(0,0,0)"/>
   <line x1="319.504852" y1="570.739563" x2="318.790009" y2="570.541504" stroke-width="1" stroke="rgb(0,0,0)"/>
   <line x1="318.790009" y1="570.541504" x2="314.312958" y2="569.378784" stroke-width="1" stroke="rgb(0,0,0)"/>
   <line x1="314.312958" y1="569.378784" x2="311.588013" y2="568.409973" stroke-width="1" stroke="rgb(0,0,0)"/>
   <line x1="311.588013" y1="568.409973" x2="309.512085" y2="567.610474" stroke-width="1" stroke="rgb(0,0,0)"/>
   <line x1="309.512085" y1="567.610474" x2="306.207611" y2="565.857849" stroke-width="1" stroke="rgb(0,0,0)"/>
   <line x1="306.207611" y1="565.857849" x2="304.966003" y2="565.213745" stroke-width="1" stroke="rgb(0,0,0)"/>
   <line x1="304.966003" y1="565.213745" x2="304.052948" y2="564.783508" stroke-width="1" stroke="rgb(0,0,0)"/>
   <line x1="304.052948" y1="564.783508" x2="300.033081" y2="562.833557" stroke-width="1" stroke="rgb(0,0,0)"/>
   <line x1="300.033081" y1="562.833557" x2="294.883850" y2="560.274902" stroke-width="1" stroke="rgb(0,0,0)"/>
   <line x1="294.883850" y1="560.274902" x2="294.277893" y2="559.974304" stroke-width="1" stroke="rgb(0,0,0)"/>
   <line x1="294.277893" y1="559.974304" x2="293.916931" y2="559.808655" stroke-width="1" stroke="rgb(0,0,0)"/>
   <line x1="293.916931" y1="559.808655" x2="288.069855" y2="556.971130" stroke-width="1" stroke="rgb(0,0,0)"/>
   <line x1="288.069855" y1="556.971130" x2="287.439606" y2="556.727051" stroke-width="1" stroke="rgb(0,0,0)"/>
   <line x1="287.439606" y1="556.727051" x2="282.435699" y2="554.493042" stroke-width="1" stroke="rgb(0,0,0)"/>
   <line x1="282.435699" y1="554.493042" x2="281.401947" y2="554.000549" stroke-width="1" stroke="rgb(0,0,0)"/>
   <line x1="281.401947" y1="554.000549" x2="276.177124" y2="551.614014" stroke-width="1" stroke="rgb(0,0,0)"/>
   <line x1="276.177124" y1="551.614014" x2="274.792084" y2="550.931519" stroke-width="1" stroke="rgb(0,0,0)"/>
   <line x1="274.792084" y1="550.931519" x2="271.971313" y2="549.518005" stroke-width="1" stroke="rgb(0,0,0)"/>
   <line x1="271.971313" y1="549.518005" x2="268.810181" y2="547.825012" stroke-width="1" stroke="rgb(0,0,0)"/>
   <line x1="268.810181" y1="547.825012" x2="267.006531" y2="546.817566" stroke-width="1" stroke="rgb(0,0,0)"/>
   <line x1="267.006531" y1="546.817566" x2="263.525543" y2="545.079407" stroke-width="1" stroke="rgb(0,0,0)"/>
   <line x1="263.525543" y1="545.079407" x2="261.003632" y2="544.007874" stroke-width="1" stroke="rgb(0,0,0)"/>
   <line x1="261.003632" y1="544.007874" x2="259.114075" y2="543.080261" stroke-width="1" stroke="rgb(0,0,0)"/>
   <line x1="259.114075" y1="543.080261" x2="256.438721" y2="541.894470" stroke-width="1" stroke="rgb(0,0,0)"/>
   <line x1="256.438721" y1="541.894470" x2="253.468842" y2="540.435364" stroke-width="1" stroke="rgb(0,0,0)"/>
   <line x1="253.468842" y1="540.435364" x2="250.506714" y2="539.087341" stroke-width="1" stroke="rgb(0,0,0)"/>
   <line x1="250.506714" y1="539.087341" x2="247.740204" y2="537.690186" stroke-width="1" stroke="rgb(0,0,0)"/>
   <line x1="247.740204" y1="537.690186" x2="245.108795" y2="536.229431" stroke-width="1" stroke="rgb(0,0,0)"/>
   <line x1="245.108795" y1="536.229431" x2="242.221298" y2="534.679443" stroke-width="1" stroke="rgb(0,0,0)"/>
   <line x1="242.221298" y1="534.679443" x2="241.308380" y2="534.173523" stroke-width="1" stroke="rgb(0,0,0)"/>
   <line x1="241.308380" y1="534.173523" x2="238.210754" y2="532.485962" stroke-width="1" stroke="rgb(0,0,0)"/>
   <line x1="238.210754" y1="532.485962" x2="236.650848" y2="531.763184" stroke-width="1" stroke="rgb(0,0,0)"/>
   <line x1="236.650848" y1="531.763184" x2="233.189240" y2="530.212708" stroke-width="1" stroke="rgb(0,0,0)"/>
   <line x1="233.189240" y1="530.212708" x2="230.463623" y2="529.045654" stroke-width="1" stroke="rgb(0,0,0)"/>
   <line x1="230.463623" y1="529.045654" x2="228.401001" y2="528.241943" stroke-width="1" stroke="rgb(0,0,0)"/>
   <line x1="228.401001" y1="528.241943" x2="224.622757" y2="526.604919" stroke-width="1" stroke="rgb(0,0,0)"/>
   <line x1="224.622757" y1="526.604919" x2="223.792694" y2="526.217285" stroke-width="1" stroke="rgb(0,0,0)"/>
   <line x1="223.792694" y1="526.217285" x2="219.429565" y2="523.998169" stroke-width="1" stroke="rgb(0,0,0)"/>
   <line x1="219.429565" y1="523.998169" x2="219.271500" y2="523.919861" stroke-width="1" stroke="rgb(0,0,0)"/>
   <line x1="219.271500" y1="523.919861" x2="219.242981" y2="523.906311" stroke-width="1" stroke="rgb(0,0,0)"/>
   <line x1="219.242981" y1="523.906311" x2="214.537476" y2="521.520203" stroke-width="1" stroke="rgb(0,0,0)"/>
   <line x1="214.537476" y1="521.520203" x2="213.674820" y2="521.153687" stroke-width="1" stroke="rgb(0,0,0)"/>
   <line x1="213.674820" y1="521.153687" x2="209.474548" y2="519.240356" stroke-width="1" stroke="rgb(0,0,0)"/>
   <line x1="209.474548" y1="519.240356" x2="207.435913" y2="518.202576" stroke-width="1" stroke="rgb(0,0,0)"/>
   <line x1="207.435913" y1="518.202576" x2="204.641205" y2="516.587646" stroke-width="1" stroke="rgb(0,0,0)"/>
   <line x1="204.641205" y1="516.587646" x2="200.174255" y2="513.943848" stroke-width="1" stroke="rgb(0,0,0)"/>
   <line x1="200.174255" y1="513.943848" x2="199.818649" y2="513.722290" stroke-width="1" stroke="rgb(0,0,0)"/>
   <line x1="199.818649" y1="513.722290" x2="199.439560" y2="513.491211" stroke-width="1" stroke="rgb(0,0,0)"/>
   <line x1="199.439560" y1="513.491211" x2="195.188019" y2="510.409302" stroke-width="1" stroke="rgb(0,0,0)"/>
   <line x1="195.188019" y1="510.409302" x2="191.949432" y2="508.116638" stroke-width="1" stroke="rgb(0,0,0)"/>
   <line x1="191.949432" y1="508.116638" x2="190.303833" y2="506.938354" stroke-width="1" stroke="rgb(0,0,0)"/>
   <line x1="190.303833" y1="506.938354" x2="186.900070" y2="504.052368" stroke-width="1" stroke="rgb(0,0,0)"/>
   <line x1="186.900070" y1="504.052368" x2="186.362976" y2="503.611816" stroke-width="1" stroke="rgb(0,0,0)"/>
   <line x1="186.362976" y1="503.611816" x2="182.598373" y2="500.304626" stroke-width="1" stroke="rgb(0,0,0)"/>
   <line x1="182.598373" y1="500.304626" x2="182.484055" y2="499.988037" stroke-width="1" stroke="rgb(0,0,0)"/>
   <line x1="182.484055" y1="499.988037" x2="182.312958" y2="499.456665" stroke-width="1" stroke="rgb(0,0,0)"/>
   <line x1="182.312958" y1="499.456665" x2="180.540955" y2="495.505920" stroke-width="1" stroke="rgb(0,0,0)"/>
   <line x1="180.540955" y1="495.505920" x2="180.399414" y2="492.340515" stroke-width="1" stroke="rgb(0,0,0)"/>
   <line x1="180.399414" y1="492.340515" x2="183.294235" y2="491.018005" stroke-width="1" stroke="rgb(0,0,0)"/>
   <line x1="183.294235" y1="491.018005" x2="186.483826" y2="490.650269" stroke-width="1" stroke="rgb(0,0,0)"/>
   <line x1="186.483826" y1="490.650269" x2="188.543457" y2="491.115234" stroke-width="1" stroke="rgb(0,0,0)"/>
   <line x1="188.543457" y1="491.115234" x2="191.387344" y2="491.565552" stroke-width="1" stroke="rgb(0,0,0)"/>
   <line x1="191.387344" y1="491.565552" x2="196.053955" y2="491.625610" stroke-width="1" stroke="rgb(0,0,0)"/>
   <line x1="196.053955" y1="491.625610" x2="196.069519" y2="491.626221" stroke-width="1" stroke="rgb(0,0,0)"/>
   <line x1="196.069519" y1="491.626221" x2="196.105408" y2="491.624756" stroke-width="1" stroke="rgb(0,0,0)"/>
   <line x1="196.105408" y1="491.624756" x2="200.799866" y2="491.667786" stroke-width="1" stroke="rgb(0,0,0)"/>
   <line x1="200.799866" y1="491.667786" x2="202.307373" y2="491.713684" stroke-width="1" stroke="rgb(0,0,0)"/>
   <line x1="202.307373" y1="491.713684" x2="206.209137" y2="491.927673" stroke-width="1" stroke="rgb(0,0,0)"/>
   <line x1="206.209137" y1="491.927673" x2="208.653625" y2="491.904724" stroke-width="1" stroke="rgb(0,0,0)"/>
   <line x1="208.653625" y1="491.904724" x2="212.107025" y2="492.356323" stroke-width="1" stroke="rgb(0,0,0)"/>
   <line x1="212.107025" y1="492.356323" x2="214.385925" y2="492.705872" stroke-width="1" stroke="rgb(0,0,0)"/>
   <line x1="214.385925" y1="492.705872" x2="217.371277" y2="493.313293" stroke-width="1" stroke="rgb(0,0,0)"/>
   <line x1="217.371277" y1="493.313293" x2="219.167847" y2="493.568542" stroke-width="1" stroke="rgb(0,0,0)"/>
   <line x1="219.167847" y1="493.568542" x2="223.619476" y2="494.242310" stroke-width="1" stroke="rgb(0,0,0)"/>
   <line x1="223.619476" y1="494.242310" x2="224.470581" y2="494.308594" stroke-width="1" stroke="rgb(0,0,0)"/>
   <line x1="224.470581" y1="494.308594" x2="228.832047" y2="495.003784" stroke-width="1" stroke="rgb(0,0,0)"/>
   <line x1="228.832047" y1="495.003784" x2="230.051697" y2="495.237793" stroke-width="1" stroke="rgb(0,0,0)"/>
   <line x1="230.051697" y1="495.237793" x2="230.336761" y2="495.283997" stroke-width="1" stroke="rgb(0,0,0)"/>
   <line x1="230.336761" y1="495.283997" x2="235.251251" y2="496.404236" stroke-width="1" stroke="rgb(0,0,0)"/>
   <line x1="235.251251" y1="496.404236" x2="237.977936" y2="496.608704" stroke-width="1" stroke="rgb(0,0,0)"/>
   <line x1="237.977936" y1="496.608704" x2="240.844727" y2="497.093872" stroke-width="1" stroke="rgb(0,0,0)"/>
   <line x1="240.844727" y1="497.093872" x2="242.338898" y2="497.197327" stroke-width="1" stroke="rgb(0,0,0)"/>
   <line x1="242.338898" y1="497.197327" x2="247.182770" y2="497.772217" stroke-width="1" stroke="rgb(0,0,0)"/>
   <line x1="247.182770" y1="497.772217" x2="247.930695" y2="497.851868" stroke-width="1" stroke="rgb(0,0,0)"/>
   <line x1="247.930695" y1="497.851868" x2="251.914490" y2="498.367188" stroke-width="1" stroke="rgb(0,0,0)"/>
   <line x1="251.914490" y1="498.367188" x2="256.433594" y2="498.479614" stroke-width="1" stroke="rgb(0,0,0)"/>
   <line x1="256.433594" y1="498.479614" x2="256.877136" y2="498.516235" stroke-width="1" stroke="rgb(0,0,0)"/>
   <line x1="256.877136" y1="498.516235" x2="257.889191" y2="498.588928" stroke-width="1" stroke="rgb(0,0,0)"/>
   <line x1="257.889191" y1="498.588928" x2="261.492767" y2="498.970032" stroke-width="1" stroke="rgb(0,0,0)"/>
   <line x1="261.492767" y1="498.970032" x2="262.771332" y2="499.165833" stroke-width="1" stroke="rgb(0,0,0)"/>
   <line x1="262.771332" y1="499.165833" x2="266.218994" y2="499.960449" stroke-width="1" stroke="rgb(0,0,0)"/>
   <line x1="266.218994" y1="499.960449" x2="268.913483" y2="500.485474" stroke-width="1" stroke="rgb(0,0,0)"/>
   <line x1="268.913483" y1="500.485474" x2="271.334625" y2="501.026062" stroke-width="1" stroke="rgb(0,0,0)"/>
   <line x1="271.334625" y1="501.026062" x2="274.739807" y2="501.657715" stroke-width="1" stroke="rgb(0,0,0)"/>
   <line x1="274.739807" y1="501.657715" x2="276.157898" y2="501.944580" stroke-width="1" stroke="rgb(0,0,0)"/>
   <line x1="276.157898" y1="501.944580" x2="277.758698" y2="502.070862" stroke-width="1" stroke="rgb(0,0,0)"/>
   <line x1="277.758698" y1="502.070862" x2="281.129028" y2="502.606567" stroke-width="1" stroke="rgb(0,0,0)"/>
   <line x1="281.129028" y1="502.606567" x2="284.553040" y2="502.789551" stroke-width="1" stroke="rgb(0,0,0)"/>
   <line x1="284.553040" y1="502.789551" x2="286.457947" y2="502.967224" stroke-width="1" stroke="rgb(0,0,0)"/>
   <line x1="286.457947" y1="502.967224" x2="288.301544" y2="502.954773" stroke-width="1" stroke="rgb(0,0,0)"/>
   <line x1="288.301544" y1="502.954773" x2="291.964661" y2="503.112000" stroke-width="1" stroke="rgb(0,0,0)"/>
   <line x1="291.964661" y1="503.112000" x2="295.908936" y2="503.001709" stroke-width="1" stroke="rgb(0,0,0)"/>
   <line x1="295.908936" y1="503.001709" x2="297.303986" y2="503.051758" stroke-width="1" stroke="rgb(0,0,0)"/>
   <line x1="297.303986" y1="503.051758" x2="298.441742" y2="503.072144" stroke-width="1" stroke="rgb(0,0,0)"/>
   <line x1="298.441742" y1="503.072144" x2="303.023376" y2="503.623657" stroke-width="1" stroke="rgb(0,0,0)"/>
   <line x1="303.023376" y1="503.623657" x2="307.540527" y2="503.784119" stroke-width="1" stroke="rgb(0,0,0)"/>
   <line x1="307.540527" y1="503.784119" x2="309.440552" y2="503.911987" stroke-width="1" stroke="rgb(0,0,0)"/>
   <line x1="309.440552" y1="503.911987" x2="312.187225" y2="504.211121" stroke-width="1" stroke="rgb(0,0,0)"/>
   <line x1="312.187225" y1="504.211121" x2="315.181885" y2="504.762085" stroke-width="1" stroke="rgb(0,0,0)"/>
   <line x1="315.181885" y1="504.762085" x2="317.120575" y2="505.166138" stroke-width="1" stroke="rgb(0,0,0)"/>
   <line x1="317.120575" y1="505.166138" x2="320.874695" y2="506.258179" stroke-width="1" stroke="rgb(0,0,0)"/>
   <line x1="320.874695" y1="506.258179" x2="323.970215" y2="507.974365" stroke-width="1" stroke="rgb(0,0,0)"/>
   <line x1="323.970215" y1="507.974365" x2="325.733154" y2="508.955688" stroke-width="1" stroke="rgb(0,0,0)"/>
   <line x1="325.733154" y1="508.955688" x2="327.898804" y2="510.603394" stroke-width="1" stroke="rgb(0,0,0)"/>
   <line x1="327.898804" y1="510.603394" x2="329.717102" y2="512.043762" stroke-width="1" stroke="rgb(0,0,0)"/>
   <line x1="329.717102" y1="512.043762" x2="331.143646" y2="513.397766" stroke-width="1" stroke="rgb(0,0,0)"/>
   <line x1="331.143646" y1="513.397766" x2="333.146027" y2="515.379211" stroke-width="1" stroke="rgb(0,0,0)"/>
   <line x1="333.146027" y1="515.379211" x2="335.748993" y2="517.237976" stroke-width="1" stroke="rgb(0,0,0)"/>
   <line x1="335.748993" y1="517.237976" x2="336.993866" y2="518.279968" stroke-width="1" stroke="rgb(0,0,0)"/>
   <line x1="336.993866" y1="518.279968" x2="338.094727" y2="519.114868" stroke-width="1" stroke="rgb(0,0,0)"/>
   <line x1="338.094727" y1="519.114868" x2="340.381378" y2="521.254028" stroke-width="1" stroke="rgb(0,0,0)"/>
   <line x1="340.381378" y1="521.254028" x2="343.678741" y2="524.001709" stroke-width="1" stroke="rgb(0,0,0)"/>
   <line x1="343.678741" y1="524.001709" x2="343.694336" y2="524.015137" stroke-width="1" stroke="rgb(0,0,0)"/>
   <line x1="343.694336" y1="524.015137" x2="343.703278" y2="524.020752" stroke-width="1" stroke="rgb(0,0,0)"/>
   <line x1="343.703278" y1="524.020752" x2="347.785889" y2="526.489319" stroke-width="1" stroke="rgb(0,0,0)"/>
   <line x1="347.785889" y1="526.489319" x2="348.819305" y2="526.829529" stroke-width="1" stroke="rgb(0,0,0)"/>
   <line x1="348.819305" y1="526.829529" x2="352.663910" y2="528.452515" stroke-width="1" stroke="rgb(0,0,0)"/>
   <line x1="352.663910" y1="528.452515" x2="354.050812" y2="528.872192" stroke-width="1" stroke="rgb(0,0,0)"/>
   <line x1="354.050812" y1="528.872192" x2="357.659851" y2="529.861023" stroke-width="1" stroke="rgb(0,0,0)"/>
   <line x1="357.659851" y1="529.861023" x2="359.068268" y2="529.961304" stroke-width="1" stroke="rgb(0,0,0)"/>
   <line x1="359.068268" y1="529.961304" x2="364.838898" y2="528.786743" stroke-width="1" stroke="rgb(0,0,0)"/>
   <line x1="364.838898" y1="528.786743" x2="365.120850" y2="528.683533" stroke-width="1" stroke="rgb(0,0,0)"/>
   <line x1="365.120850" y1="528.683533" x2="366.219818" y2="528.214661" stroke-width="1" stroke="rgb(0,0,0)"/>
   <line x1="366.219818" y1="528.214661" x2="369.998383" y2="526.450378" stroke-width="1" stroke="rgb(0,0,0)"/>
   <line x1="369.998383" y1="526.450378" x2="371.058411" y2="525.954773" stroke-width="1" stroke="rgb(0,0,0)"/>
   <line x1="371.058411" y1="525.954773" x2="374.417999" y2="523.670959" stroke-width="1" stroke="rgb(0,0,0)"/>
   <line x1="374.417999" y1="523.670959" x2="376.567780" y2="521.549316" stroke-width="1" stroke="rgb(0,0,0)"/>
   <line x1="376.567780" y1="521.549316" x2="378.064240" y2="519.884033" stroke-width="1" stroke="rgb(0,0,0)"/>
   <line x1="378.064240" y1="519.884033" x2="379.434906" y2="517.553467" stroke-width="1" stroke="rgb(0,0,0)"/>
   <line x1="379.434906" y1="517.553467" x2="380.540436" y2="515.684937" stroke-width="1" stroke="rgb(0,0,0)"/>
   <line x1="380.540436" y1="515.684937" x2="381.431946" y2="513.261780" stroke-width="1" stroke="rgb(0,0,0)"/>
   <line x1="381.431946" y1="513.261780" x2="382.218384" y2="511.537537" stroke-width="1" stroke="rgb(0,0,0)"/>
   <line x1="382.218384" y1="511.537537" x2="382.750000" y2="510.132996" stroke-width="1" stroke="rgb(0,0,0)"/>
   <line x1="382.750000" y1="510.132996" x2="383.939423" y2="507.310425" stroke-width="1" stroke="rgb(0,0,0)"/>
   <line x1="383.939423" y1="507.310425" x2="384.919128" y2="503.405273" stroke-width="1" stroke="rgb(0,0,0)"/>
   <line x1="384.919128" y1="503.405273" x2="385.249756" y2="502.405884" stroke-width="1" stroke="rgb(0,0,0)"/>
   <line x1="385.249756" y1="502.405884" x2="385.413788" y2="501.752075" stroke-width="1" stroke="rgb(0,0,0)"/>
   <line x1="385.413788" y1="501.752075" x2="386.654510" y2="497.994019" stroke-width="1" stroke="rgb(0,0,0)"/>
   <line x1="386.654510" y1="497.994019" x2="387.516083" y2="495.941895" stroke-width="1" stroke="rgb(0,0,0)"/>
   <line x1="387.516083" y1="495.941895" x2="388.075989" y2="494.588654" stroke-width="1" stroke="rgb(0,0,0)"/>
   <line x1="388.075989" y1="494.588654" x2="388.471100" y2="493.767700" stroke-width="1" stroke="rgb(0,0,0)"/>
   <line x1="388.471100" y1="493.767700" x2="390.152679" y2="490.713379" stroke-width="1" stroke="rgb(0,0,0)"/>
   <line x1="390.152679" y1="490.713379" x2="391.673126" y2="488.500305" stroke-width="1" stroke="rgb(0,0,0)"/>
   <line x1="391.673126" y1="488.500305" x2="392.956360" y2="486.679382" stroke-width="1" stroke="rgb(0,0,0)"/>
   <line x1="392.956360" y1="486.679382" x2="395.402893" y2="484.374390" stroke-width="1" stroke="rgb(0,0,0)"/>
   <line x1="395.402893" y1="484.374390" x2="396.592529" y2="483.302948" stroke-width="1" stroke="rgb(0,0,0)"/>
   <line x1="396.592529" y1="483.302948" x2="400.950592" y2="481.282837" stroke-width="1" stroke="rgb(0,0,0)"/>
   <line x1="400.950592" y1="481.282837" x2="401.562988" y2="481.039917" stroke-width="1" stroke="rgb(0,0,0)"/>
   <line x1="401.562988" y1="481.039917" x2="404.854095" y2="480.074219" stroke-width="1" stroke="rgb(0,0,0)"/>
   <line x1="404.854095" y1="480.074219" x2="407.118469" y2="479.420868" stroke-width="1" stroke="rgb(0,0,0)"/>
   <line x1="407.118469" y1="479.420868" x2="407.498749" y2="479.278107" stroke-width="1" stroke="rgb(0,0,0)"/>
   <line x1="407.498749" y1="479.278107" x2="412.544800" y2="477.941528" stroke-width="1" stroke="rgb(0,0,0)"/>
   <line x1="412.544800" y1="477.941528" x2="413.787842" y2="477.629456" stroke-width="1" stroke="rgb(0,0,0)"/>
   <line x1="413.787842" y1="477.629456" x2="417.643585" y2="476.751404" stroke-width="1" stroke="rgb(0,0,0)"/>
   <line x1="417.643585" y1="476.751404" x2="421.092194" y2="476.412781" stroke-width="1" stroke="rgb(0,0,0)"/>
   <line x1="421.092194" y1="476.412781" x2="423.105499" y2="476.381409" stroke-width="1" stroke="rgb(0,0,0)"/>
   <line x1="423.105499" y1="476.381409" x2="426.210602" y2="476.553040" stroke-width="1" stroke="rgb(0,0,0)"/>
   <line x1="426.210602" y1="476.553040" x2="428.601898" y2="476.707947" stroke-width="1" stroke="rgb(0,0,0)"/>
   <line x1="428.601898" y1="476.707947" x2="430.414154" y2="476.687256" stroke-width="1" stroke="rgb(0,0,0)"/>
   <line x1="430.414154" y1="476.687256" x2="434.003998" y2="476.719147" stroke-width="1" stroke="rgb(0,0,0)"/>
   <line x1="434.003998" y1="476.719147" x2="439.007751" y2="476.316833" stroke-width="1" stroke="rgb(0,0,0)"/>
   <line x1="439.007751" y1="476.316833" x2="439.369415" y2="476.311646" stroke-width="1" stroke="rgb(0,0,0)"/>
   <line x1="439.369415" y1="476.311646" x2="440.518890" y2="476.283752" stroke-width="1" stroke="rgb(0,0,0)"/>
   <line x1="440.518890" y1="476.283752" x2="445.142395" y2="476.239075" stroke-width="1" stroke="rgb(0,0,0)"/>
   <line x1="445.142395" y1="476.239075" x2="446.424408" y2="476.256165" stroke-width="1" stroke="rgb(0,0,0)"/>
   <line x1="446.424408" y1="476.256165" x2="451.082642" y2="476.310120" stroke-width="1" stroke="rgb(0,0,0)"/>
   <line x1="451.082642" y1="476.310120" x2="453.143616" y2="476.377625" stroke-width="1" stroke="rgb(0,0,0)"/>
   <line x1="453.143616" y1="476.377625" x2="458.973572" y2="476.915894" stroke-width="1" stroke="rgb(0,0,0)"/>
   <line x1="458.973572" y1="476.915894" x2="459.478546" y2="476.960388" stroke-width="1" stroke="rgb(0,0,0)"/>
   <line x1="459.478546" y1="476.960388" x2="459.700317" y2="476.979767" stroke-width="1" stroke="rgb(0,0,0)"/>
   <line x1="459.700317" y1="476.979767" x2="465.750061" y2="477.965393" stroke-width="1" stroke="rgb(0,0,0)"/>
   <line x1="465.750061" y1="477.965393" x2="468.204407" y2="478.177612" stroke-width="1" stroke="rgb(0,0,0)"/>
   <line x1="468.204407" y1="478.177612" x2="472.498718" y2="478.552368" stroke-width="1" stroke="rgb(0,0,0)"/>
   <line x1="472.498718" y1="478.552368" x2="474.586823" y2="478.799988" stroke-width="1" stroke="rgb(0,0,0)"/>
   <line x1="474.586823" y1="478.799988" x2="478.717987" y2="479.218811" stroke-width="1" stroke="rgb(0,0,0)"/>
   <line x1="478.717987" y1="479.218811" x2="480.722626" y2="479.555786" stroke-width="1" stroke="rgb(0,0,0)"/>
   <line x1="480.722626" y1="479.555786" x2="485.329773" y2="480.162537" stroke-width="1" stroke="rgb(0,0,0)"/>
   <line x1="485.329773" y1="480.162537" x2="486.888519" y2="480.382538" stroke-width="1" stroke="rgb(0,0,0)"/>
   <line x1="486.888519" y1="480.382538" x2="492.319458" y2="481.118286" stroke-width="1" stroke="rgb(0,0,0)"/>
   <line x1="492.319458" y1="481.118286" x2="493.428772" y2="481.215912" stroke-width="1" stroke="rgb(0,0,0)"/>
   <line x1="493.428772" y1="481.215912" x2="498.509888" y2="482.427917" stroke-width="1" stroke="rgb(0,0,0)"/>
   <line x1="498.509888" y1="482.427917" x2="499.999329" y2="482.737976" stroke-width="1" stroke="rgb(0,0,0)"/>
   <line x1="499.999329" y1="482.737976" x2="504.172241" y2="484.034851" stroke-width="1" stroke="rgb(0,0,0)"/>
   <line x1="504.172241" y1="484.034851" x2="506.326263" y2="484.532837" stroke-width="1" stroke="rgb(0,0,0)"/>
   <line x1="506.326263" y1="484.532837" x2="509.746490" y2="485.192993" stroke-width="1" stroke="rgb(0,0,0)"/>
   <line x1="509.746490" y1="485.192993" x2="512.966064" y2="485.563843" stroke-width="1" stroke="rgb(0,0,0)"/>
   <line x1="512.966064" y1="485.563843" x2="514.983398" y2="485.798340" stroke-width="1" stroke="rgb(0,0,0)"/>
   <line x1="514.983398" y1="485.798340" x2="519.825439" y2="486.632568" stroke-width="1" stroke="rgb(0,0,0)"/>
   <line x1="519.825439" y1="486.632568" x2="520.032104" y2="486.674561" stroke-width="1" stroke="rgb(0,0,0)"/>
   <line x1="520.032104" y1="486.674561" x2="520.613281" y2="486.749084" stroke-width="1" stroke="rgb(0,0,0)"/>
   <line x1="520.613281" y1="486.749084" x2="525.146851" y2="487.267975" stroke-width="1" stroke="rgb(0,0,0)"/>
   <line x1="525.146851" y1="487.267975" x2="526.702454" y2="487.372314" stroke-width="1" stroke="rgb(0,0,0)"/>
   <line x1="526.702454" y1="487.372314" x2="530.555054" y2="487.792114" stroke-width="1" stroke="rgb(0,0,0)"/>
   <line x1="530.555054" y1="487.792114" x2="533.477905" y2="488.011292" stroke-width="1" stroke="rgb(0,0,0)"/>
   <line x1="533.477905" y1="488.011292" x2="535.996704" y2="488.397888" stroke-width="1" stroke="rgb(0,0,0)"/>
   <line x1="535.996704" y1="488.397888" x2="539.462097" y2="489.071472" stroke-width="1" stroke="rgb(0,0,0)"/>
   <line x1="539.462097" y1="489.071472" x2="541.348267" y2="489.422607" stroke-width="1" stroke="rgb(0,0,0)"/>
   <line x1="541.348267" y1="489.422607" x2="545.246338" y2="490.105103" stroke-width="1" stroke="rgb(0,0,0)"/>
   <line x1="545.246338" y1="490.105103" x2="547.324158" y2="490.330017" stroke-width="1" stroke="rgb(0,0,0)"/>
   <line x1="547.324158" y1="490.330017" x2="551.848755" y2="491.019928" stroke-width="1" stroke="rgb(0,0,0)"/>
   <line x1="551.848755" y1="491.019928" x2="553.908875" y2="491.008606" stroke-width="1" stroke="rgb(0,0,0)"/>
   <line x1="553.908875" y1="491.008606" x2="558.379272" y2="491.824768" stroke-width="1" stroke="rgb(0,0,0)"/>
   <line x1="558.379272" y1="491.824768" x2="559.673584" y2="492.028137" stroke-width="1" stroke="rgb(0,0,0)"/>
   <line x1="559.673584" y1="492.028137" x2="560.309570" y2="492.447937" stroke-width="1" stroke="rgb(0,0,0)"/>
   <line x1="560.309570" y1="492.447937" x2="564.602539" y2="494.476440" stroke-width="1" stroke="rgb(0,0,0)"/>
   <line x1="564.602539" y1="494.476440" x2="566.724243" y2="496.994202" stroke-width="1" stroke="rgb(0,0,0)"/>
   <line x1="566.724243" y1="496.994202" x2="567.513977" y2="498.415955" stroke-width="1" stroke="rgb(0,0,0)"/>
   <line x1="567.513977" y1="498.415955" x2="568.715210" y2="501.944153" stroke-width="1" stroke="rgb(0,0,0)"/>
   <line x1="568.715210" y1="501.944153" x2="568.623779" y2="502.990112" stroke-width="1" stroke="rgb(0,0,0)"/>
   <line x1="568.623779" y1="502.990112" x2="566.865295" y2="506.886536" stroke-width="1" stroke="rgb(0,0,0)"/>
   <line x1="566.865295" y1="506.886536" x2="565.995361" y2="508.261353" stroke-width="1" stroke="rgb(0,0,0)"/>
   <line x1="565.995361" y1="508.261353" x2="563.752686" y2="510.840515" stroke-width="1" stroke="rgb(0,0,0)"/>
   <line x1="563.752686" y1="510.840515" x2="562.260010" y2="512.754944" stroke-width="1" stroke="rgb(0,0,0)"/>
   <line x1="562.260010" y1="512.754944" x2="560.445190" y2="514.804443" stroke-width="1" stroke="rgb(0,0,0)"/>
   <line x1="560.445190" y1="514.804443" x2="558.324463" y2="517.078186" stroke-width="1" stroke="rgb(0,0,0)"/>
   <line x1="558.324463" y1="517.078186" x2="556.772522" y2="518.694275" stroke-width="1" stroke="rgb(0,0,0)"/>
   <line x1="556.772522" y1="518.694275" x2="554.247375" y2="521.121399" stroke-width="1" stroke="rgb(0,0,0)"/>
   <line x1="554.247375" y1="521.121399" x2="552.914124" y2="522.324158" stroke-width="1" stroke="rgb(0,0,0)"/>
   <line x1="552.914124" y1="522.324158" x2="549.821167" y2="525.085144" stroke-width="1" stroke="rgb(0,0,0)"/>
   <line x1="549.821167" y1="525.085144" x2="548.859985" y2="525.948608" stroke-width="1" stroke="rgb(0,0,0)"/>
   <line x1="548.859985" y1="525.948608" x2="544.955566" y2="529.390442" stroke-width="1" stroke="rgb(0,0,0)"/>
   <line x1="544.955566" y1="529.390442" x2="543.850830" y2="530.357666" stroke-width="1" stroke="rgb(0,0,0)"/>
   <line x1="543.850830" y1="530.357666" x2="540.366760" y2="532.892090" stroke-width="1" stroke="rgb(0,0,0)"/>
   <line x1="540.366760" y1="532.892090" x2="538.974609" y2="533.856567" stroke-width="1" stroke="rgb(0,0,0)"/>
   <line x1="538.974609" y1="533.856567" x2="538.390747" y2="534.270264" stroke-width="1" stroke="rgb(0,0,0)"/>
   <line x1="538.390747" y1="534.270264" x2="534.466553" y2="536.773499" stroke-width="1" stroke="rgb(0,0,0)"/>
   <line x1="534.466553" y1="536.773499" x2="531.202271" y2="538.910828" stroke-width="1" stroke="rgb(0,0,0)"/>
   <line x1="531.202271" y1="538.910828" x2="529.650391" y2="539.904968" stroke-width="1" stroke="rgb(0,0,0)"/>
   <line x1="529.650391" y1="539.904968" x2="528.400757" y2="540.673401" stroke-width="1" stroke="rgb(0,0,0)"/>
   <line x1="528.400757" y1="540.673401" x2="524.878906" y2="542.864319" stroke-width="1" stroke="rgb(0,0,0)"/>
   <line x1="524.878906" y1="542.864319" x2="522.490051" y2="544.066223" stroke-width="1" stroke="rgb(0,0,0)"/>
   <line x1="522.490051" y1="544.066223" x2="520.342834" y2="545.050537" stroke-width="1" stroke="rgb(0,0,0)"/>
   <line x1="520.342834" y1="545.050537" x2="516.623169" y2="546.452637" stroke-width="1" stroke="rgb(0,0,0)"/>
   <line x1="516.623169" y1="546.452637" x2="515.466797" y2="546.867554" stroke-width="1" stroke="rgb(0,0,0)"/>
   <line x1="515.466797" y1="546.867554" x2="512.347107" y2="548.074341" stroke-width="1" stroke="rgb(0,0,0)"/>
   <line x1="512.347107" y1="548.074341" x2="511.243805" y2="548.484009" stroke-width="1" stroke="rgb(0,0,0)"/>
   <line x1="511.243805" y1="548.484009" x2="510.393311" y2="548.862000" stroke-width="1" stroke="rgb(0,0,0)"/>
   <line x1="510.393311" y1="548.862000" x2="507.038147" y2="550.312500" stroke-width="1" stroke="rgb(0,0,0)"/>
   <line x1="507.038147" y1="550.312500" x2="505.043518" y2="551.112732" stroke-width="1" stroke="rgb(0,0,0)"/>
   <line x1="505.043518" y1="551.112732" x2="501.855652" y2="552.429565" stroke-width="1" stroke="rgb(0,0,0)"/>
   <line x1="501.855652" y1="552.429565" x2="496.936584" y2="554.180725" stroke-width="1" stroke="rgb(0,0,0)"/>
   <line x1="496.936584" y1="554.180725" x2="496.724365" y2="554.256836" stroke-width="1" stroke="rgb(0,0,0)"/>
   <line x1="496.724365" y1="554.256836" x2="496.300201" y2="554.393127" stroke-width="1" stroke="rgb(0,0,0)"/>
   <line x1="496.300201" y1="554.393127" x2="492.022949" y2="555.725220" stroke-width="1" stroke="rgb(0,0,0)"/>
   <line x1="492.022949" y1="555.725220" x2="488.483734" y2="556.836670" stroke-width="1" stroke="rgb(0,0,0)"/>
   <line x1="488.483734" y1="556.836670" x2="487.409363" y2="557.162170" stroke-width="1" stroke="rgb(0,0,0)"/>
   <line x1="487.409363" y1="557.162170" x2="486.786682" y2="557.360657" stroke-width="1" stroke="rgb(0,0,0)"/>
   <line x1="486.786682" y1="557.360657" x2="482.054413" y2="558.835754" stroke-width="1" stroke="rgb(0,0,0)"/>
   <line x1="482.054413" y1="558.835754" x2="479.239899" y2="559.734924" stroke-width="1" stroke="rgb(0,0,0)"/>
   <line x1="479.239899" y1="559.734924" x2="476.474792" y2="560.533752" stroke-width="1" stroke="rgb(0,0,0)"/>
   <line x1="476.474792" y1="560.533752" x2="472.068237" y2="561.695068" stroke-width="1" stroke="rgb(0,0,0)"/>
   <line x1="472.068237" y1="561.695068" x2="470.824493" y2="561.949341" stroke-width="1" stroke="rgb(0,0,0)"/>
   <line x1="470.824493" y1="561.949341" x2="465.767456" y2="563.046326" stroke-width="1" stroke="rgb(0,0,0)"/>
   <line x1="465.767456" y1="563.046326" x2="465.292419" y2="563.147583" stroke-width="1" stroke="rgb(0,0,0)"/>
   <line x1="465.292419" y1="563.147583" x2="465.177887" y2="563.171936" stroke-width="1" stroke="rgb(0,0,0)"/>
   <line x1="465.177887" y1="563.171936" x2="460.089569" y2="564.264954" stroke-width="1" stroke="rgb(0,0,0)"/>
   <line x1="460.089569" y1="564.264954" x2="458.426422" y2="564.675476" stroke-width="1" stroke="rgb(0,0,0)"/>
   <line x1="458.426422" y1="564.675476" x2="455.681183" y2="565.376953" stroke-width="1" stroke="rgb(0,0,0)"/>
   <line x1="455.681183" y1="565.376953" x2="451.909180" y2="566.252258" stroke-width="1" stroke="rgb(0,0,0)"/>
   <line x1="451.909180" y1="566.252258" x2="450.752686" y2="566.458923" stroke-width="1" stroke="rgb(0,0,0)"/>
   <line x1="450.752686" y1="566.458923" x2="449.954498" y2="566.578369" stroke-width="1" stroke="rgb(0,0,0)"/>
   <line x1="449.954498" y1="566.578369" x2="444.702972" y2="567.664917" stroke-width="1" stroke="rgb(0,0,0)"/>
   <line x1="444.702972" y1="567.664917" x2="442.072662" y2="568.048645" stroke-width="1" stroke="rgb(0,0,0)"/>
   <line x1="442.072662" y1="568.048645" x2="438.840729" y2="568.447449" stroke-width="1" stroke="rgb(0,0,0)"/>
   <line x1="438.840729" y1="568.447449" x2="434.856140" y2="569.008972" stroke-width="1" stroke="rgb(0,0,0)"/>
   <line x1="434.856140" y1="569.008972" x2="433.028412" y2="569.228394" stroke-width="1" stroke="rgb(0,0,0)"/>
   <line x1="433.028412" y1="569.228394" x2="429.126556" y2="569.636536" stroke-width="1" stroke="rgb(0,0,0)"/>
   <line x1="429.126556" y1="569.636536" x2="427.175049" y2="569.863892" stroke-width="1" stroke="rgb(0,0,0)"/>
   <line x1="427.175049" y1="569.863892" x2="424.627106" y2="570.159851" stroke-width="1" stroke="rgb(0,0,0)"/>
   <line x1="424.627106" y1="570.159851" x2="421.903412" y2="570.589844" stroke-width="1" stroke="rgb(0,0,0)"/>
   <line x1="421.903412" y1="570.589844" x2="419.317413" y2="571.053284" stroke-width="1" stroke="rgb(0,0,0)"/>
   <line x1="419.317413" y1="571.053284" x2="416.161377" y2="571.753845" stroke-width="1" stroke="rgb(0,0,0)"/>
   <line x1="416.161377" y1="571.753845" x2="414.118652" y2="572.136841" stroke-width="1" stroke="rgb(0,0,0)"/>
   <line x1="414.118652" y1="572.136841" x2="412.363342" y2="572.625305" stroke-width="1" stroke="rgb(0,0,0)"/>
   <line x1="412.363342" y1="572.625305" x2="409.047577" y2="573.393311" stroke-width="1" stroke="rgb(0,0,0)"/>
   <line x1="409.047577" y1="573.393311" x2="406.221130" y2="573.892212" stroke-width="1" stroke="rgb(0,0,0)"/>
   <line x1="406.221130" y1="573.892212" x2="403.402435" y2="574.344177" stroke-width="1" stroke="rgb(0,0,0)"/>
   <line x1="403.402435" y1="574.344177" x2="398.299164" y2="574.489685" stroke-width="1" stroke="rgb(0,0,0)"/>
   <line x1="398.299164" y1="574.489685" x2="397.874786" y2="574.489319" stroke-width="1" stroke="rgb(0,0,0)"/>
   <line x1="397.874786" y1="574.489319" x2="397.656891" y2="574.519836" stroke-width="1" stroke="rgb(0,0,0)"/>
   <line x1="397.656891" y1="574.519836" x2="392.652222" y2="574.918701" stroke-width="1" stroke="rgb(0,0,0)"/>
   <line x1="392.652222" y1="574.918701" x2="388.435181" y2="575.554321" stroke-width="1" stroke="rgb(0,0,0)"/>
   <line x1="388.435181" y1="575.554321" x2="387.171692" y2="575.742432" stroke-width="1" stroke="rgb(0,0,0)"/>
   <line x1="387.171692" y1="575.742432" x2="386.093994" y2="575.881836" stroke-width="1" stroke="rgb(0,0,0)"/>
   <line x1="386.093994" y1="575.881836" x2="381.235870" y2="576.500122" stroke-width="1" stroke="rgb(0,0,0)"/>
   <line x1="381.235870" y1="576.500122" x2="376.843140" y2="577.036865" stroke-width="1" stroke="rgb(0,0,0)"/>
   <line x1="376.843140" y1="577.036865" x2="374.995026" y2="577.386902" stroke-width="1" stroke="rgb(0,0,0)"/>
   <line x1="374.995026" y1="577.386902" x2="369.658234" y2="578.166382" stroke-width="1" stroke="rgb(0,0,0)"/>
   <line x1="369.658234" y1="578.166382" x2="369.193665" y2="578.246033" stroke-width="1" stroke="rgb(0,0,0)"/>
   <line x1="369.193665" y1="578.246033" x2="368.032745" y2="578.389893" stroke-width="1" stroke="rgb(0,0,0)"/>
   <line x1="368.032745" y1="578.389893" x2="363.741730" y2="578.852722" stroke-width="1" stroke="rgb(0,0,0)"/>
   <line x1="363.741730" y1="578.852722" x2="361.580750" y2="578.889282" stroke-width="1" stroke="rgb(0,0,0)"/>
   <line x1="361.580750" y1="578.889282" x2="358.175659" y2="578.878723" stroke-width="1" stroke="rgb(0,0,0)"/>
   <line x1="358.175659" y1="578.878723" x2="353.230988" y2="578.685852" stroke-width="1" stroke="rgb(0,0,0)"/>
</svg>
